<?xml version="1.0" encoding="utf-8"?>
<svg id="master-artboard" viewBox="0 0 1376.388916015625 751.2673950195312" version="1.1" xmlns="http://www.w3.org/2000/svg" x="0px" y="0px" style="enable-background:new 0 0 336 235.2;" width="1376.388916015625px" height="751.2673950195312px"><defs><linearGradient id="gradient-0" gradientUnits="userSpaceOnUse" x1="4002.174072265625" y1="1040" x2="4002.174072265625" y2="5176.19384765625">
                <stop offset="0" style="stop-color: #000000"/>
                <stop offset="1" style="stop-color: #000000"/>
              </linearGradient><linearGradient id="gradient-1" gradientUnits="userSpaceOnUse" x1="4629.271240234375" y1="3259" x2="4629.271240234375" y2="3560">
                <stop offset="0" style="stop-color: #000000"/>
                <stop offset="1" style="stop-color: #000000"/>
              </linearGradient><linearGradient id="gradient-2" gradientUnits="userSpaceOnUse" x1="4650" y1="2590" x2="4650" y2="2890">
                <stop offset="0" style="stop-color: #000000"/>
                <stop offset="1" style="stop-color: #000000"/>
              </linearGradient><radialGradient id="gradient-3" gradientUnits="objectBoundingBox" cx="0.5" cy="0.5" r="0.5">
                <stop offset="0" style="stop-color: #a44bbd"/>
                <stop offset="1" style="stop-color: #662c77"/>
              </radialGradient><radialGradient id="gradient-4" gradientUnits="objectBoundingBox" cx="0.5" cy="0.5" r="0.5">
                <stop offset="0" style="stop-color: #a44bbd"/>
                <stop offset="1" style="stop-color: #662c77"/>
              </radialGradient><radialGradient id="gradient-5" gradientUnits="objectBoundingBox" cx="0.5" cy="0.5" r="0.5">
                <stop offset="0" style="stop-color: #a44bbd"/>
                <stop offset="1" style="stop-color: #662c77"/>
              </radialGradient><linearGradient id="gradient-6" gradientUnits="userSpaceOnUse" x1="1336.8890380859375" y1="1040.0001220703125" x2="1336.8890380859375" y2="5176.19384765625" gradientTransform="matrix(0.007423891627298007, -0.9999722604570084, 1.4132696717377953, 0.010492826275426803, -1389.6478864260193, 4425.888587414131)">
                <stop offset="0" style="stop-color: #a44bbd"/>
                <stop offset="1" style="stop-color: #662c77"/>
              </linearGradient><linearGradient id="gradient-7" gradientUnits="userSpaceOnUse" x1="4629.271240234375" y1="3259" x2="4629.271240234375" y2="3560" gradientTransform="matrix(-0.17616841879508954, -0.9843601775408386, 0.45024165745007544, -0.08057895374400895, 3570.896559913537, 8232.070116512228)">
                <stop offset="0" style="stop-color: #a44bbd"/>
                <stop offset="1" style="stop-color: #662c77"/>
              </linearGradient><linearGradient id="gradient-8" gradientUnits="userSpaceOnUse" x1="4650" y1="2590" x2="4650" y2="2890" gradientTransform="matrix(-0.06105996477503746, -0.9981368418522653, 0.3915141562908442, -0.023951573524136616, 3549.4778948697626, 7446.962683562786)">
                <stop offset="0" style="stop-color: #a44bbd"/>
                <stop offset="1" style="stop-color: #662c77"/>
              </linearGradient><linearGradient id="gradient-9" gradientUnits="userSpaceOnUse" x1="4002.174072265625" y1="1040" x2="4002.174072265625" y2="5176.19384765625" gradientTransform="matrix(0.014412821323920024, -0.9998961696856205, 1.031009911822822, 0.014861548099057615, -1139.2386303586095, 7077.2168400032915)">
                <stop offset="0" style="stop-color: #a44bbd"/>
                <stop offset="1" style="stop-color: #662c77"/>
              </linearGradient></defs><rect id="ee-background" x="0" y="0" width="1376.388916015625" height="751.2673950195312" style="fill: white; fill-opacity: 0; pointer-events: none;"/>














<g transform="matrix(1.6333332061767576, 0, 0, 1.6333332061767576, 35.86111450195312, -91.49305725097656)"><g transform="translate(0.000000,600.000000) scale(0.100000,-0.100000)" fill="#000000" stroke="none">



<path d="M229 5170 c-88 -15 -164 -74 -203 -159 l-21 -46 0 -1855 0 -1855 28&#10;-57 c30 -61 64 -95 131 -131 l41 -22 3784 -3 3784 -2 56 26 c69 31 105 64 139&#10;129 l27 50 3 1839 c3 2033 7 1899 -61 1988 -20 27 -55 54 -92 73 l-59 30&#10;-3755 1 c-2066 1 -3777 -2 -3802 -6z m1195 -1788 c93 -312 174 -580 181 -596&#10;11 -30 16 -17 333 1041 l37 123 293 0 c160 0 292 -2 292 -4 0 -7 -619 -1757&#10;-625 -1766 -6 -10 -665 -15 -665 -6 0 2 -120 341 -266 753 -146 411 -288 810&#10;-315 886 l-48 137 307 0 307 0 169 -568z m1970 -322 l-1 -885 -286 -3 -287 -2&#10;0 890 0 890 288 -2 287 -3 -1 -885z m1714 875 c144 -34 270 -131 327 -250 52&#10;-109 46 -288 -13 -398 -34 -63 -119 -141 -179 -163 -27 -9 -52 -20 -56 -24 -4&#10;-4 19 -17 52 -29 165 -60 254 -176 270 -354 19 -215 -64 -383 -235 -474 -128&#10;-68 -110 -67 -826 -71 l-648 -3 0 890 0 891 623 0 c516 0 633 -3 685 -15z&#10;m2272 -78 l0 -93 -410 -579 -410 -580 420 -3 420 -2 0 -215 0 -215 -860 0&#10;-860 0 0 98 1 97 407 575 407 575 -377 3 -378 2 0 215 0 215 820 0 820 0 0&#10;-93z" style="fill: url('#gradient-9'); fill-opacity: 1; stroke: rgb(33, 255, 92); paint-order: stroke; stroke-opacity: 1;"/><path d="M4370 2740 l0 -150 238 0 c173 1 243 4 260 14 42 23 62 66 62 131 0&#10;71 -14 102 -59 132 -33 22 -41 23 -267 23 l-234 0 0 -150z" style="fill: url('#gradient-8'); fill-opacity: 1; stroke: rgb(33, 255, 92); paint-order: stroke; stroke-opacity: 1;"/><path d="M 1220.9874267578125 4803 L 1211.4373779296875 4803 L 1211.4373779296875 4785.8701171875 L 1220.9874267578125 4785.8701171875 L 1220.9874267578125 4787.64013671875 L 1213.4273681640625 4787.64013671875 L 1213.4273681640625 4793.16015625 L 1220.52734375 4793.16015625 L 1220.52734375 4794.91015625 L 1213.4273681640625 4794.91015625 L 1213.4273681640625 4801.22021484375 L 1220.9874267578125 4801.22021484375 L 1220.9874267578125 4803 ZM 1233.251953125 4803 L 1233.251953125 4794.68994140625 C 1233.251953125 4793.6435546875 1233.0152587890625 4792.86328125 1232.5419921875 4792.35009765625 C 1232.06201171875 4791.830078125 1231.3153076171875 4791.56982421875 1230.302001953125 4791.56982421875 C 1228.955322265625 4791.56982421875 1227.971923828125 4791.93310546875 1227.3519287109375 4792.66015625 C 1226.725341796875 4793.38671875 1226.4119873046875 4794.58642578125 1226.4119873046875 4796.259765625 L 1226.4119873046875 4803 L 1224.4620361328125 4803 L 1224.4620361328125 4790.16015625 L 1226.0419921875 4790.16015625 L 1226.3619384765625 4791.91015625 L 1226.4520263671875 4791.91015625 C 1226.8519287109375 4791.27685546875 1227.4119873046875 4790.78662109375 1228.1319580078125 4790.43994140625 C 1228.8519287109375 4790.09326171875 1229.6519775390625 4789.919921875 1230.531982421875 4789.919921875 C 1232.07861328125 4789.919921875 1233.245361328125 4790.29345703125 1234.031982421875 4791.0400390625 C 1234.81201171875 4791.78662109375 1235.2020263671875 4792.97998046875 1235.2020263671875 4794.6201171875 L 1235.2020263671875 4803 L 1233.251953125 4803 ZM 1243.18017578125 4801.6298828125 C 1243.52685546875 4801.6298828125 1243.8602294921875 4801.603515625 1244.18017578125 4801.5498046875 C 1244.500244140625 4801.50341796875 1244.7535400390625 4801.4501953125 1244.940185546875 4801.39013671875 L 1244.940185546875 4802.8798828125 C 1244.7269287109375 4802.98681640625 1244.4168701171875 4803.06982421875 1244.01025390625 4803.1298828125 C 1243.596923828125 4803.19677734375 1243.2269287109375 4803.22998046875 1242.9002685546875 4803.22998046875 C 1240.41357421875 4803.22998046875 1239.170166015625 4801.92333984375 1239.170166015625 4799.31005859375 L 1239.170166015625 4791.669921875 L 1237.3302001953125 4791.669921875 L 1237.3302001953125 4790.72998046875 L 1239.170166015625 4789.919921875 L 1239.990234375 4787.18017578125 L 1241.1202392578125 4787.18017578125 L 1241.1202392578125 4790.16015625 L 1244.8502197265625 4790.16015625 L 1244.8502197265625 4791.669921875 L 1241.1202392578125 4791.669921875 L 1241.1202392578125 4799.22998046875 C 1241.1202392578125 4800.00341796875 1241.3035888671875 4800.5966796875 1241.670166015625 4801.009765625 C 1242.036865234375 4801.42333984375 1242.5401611328125 4801.6298828125 1243.18017578125 4801.6298828125 ZM 1252.9879150390625 4803.22998046875 C 1251.087890625 4803.22998046875 1249.587890625 4802.6533203125 1248.4879150390625 4801.5 C 1247.39453125 4800.3466796875 1246.847900390625 4798.740234375 1246.847900390625 4796.68017578125 C 1246.847900390625 4794.61328125 1247.35791015625 4792.97021484375 1248.3779296875 4791.75 C 1249.39794921875 4790.52978515625 1250.7646484375 4789.919921875 1252.4779052734375 4789.919921875 C 1254.09130859375 4789.919921875 1255.3646240234375 4790.4501953125 1256.2979736328125 4791.509765625 C 1257.2379150390625 4792.56982421875 1257.7078857421875 4793.966796875 1257.7078857421875 4795.7001953125 L 1257.7078857421875 4796.93017578125 L 1248.85791015625 4796.93017578125 C 1248.89794921875 4798.4365234375 1249.28125 4799.580078125 1250.0079345703125 4800.35986328125 C 1250.7279052734375 4801.146484375 1251.74462890625 4801.5400390625 1253.0579833984375 4801.5400390625 C 1254.4378662109375 4801.5400390625 1255.8045654296875 4801.25 1257.157958984375 4800.669921875 L 1257.157958984375 4802.39990234375 C 1256.4713134765625 4802.7001953125 1255.8212890625 4802.91357421875 1255.2078857421875 4803.0400390625 C 1254.5946044921875 4803.16650390625 1253.8546142578125 4803.22998046875 1252.9879150390625 4803.22998046875 M 1252.4578857421875 4791.5498046875 C 1251.424560546875 4791.5498046875 1250.601318359375 4791.88671875 1249.9879150390625 4792.56005859375 C 1249.3746337890625 4793.2333984375 1249.0146484375 4794.16357421875 1248.907958984375 4795.35009765625 L 1255.6279296875 4795.35009765625 C 1255.6279296875 4794.12353515625 1255.351318359375 4793.18310546875 1254.7979736328125 4792.52978515625 C 1254.251220703125 4791.87646484375 1253.4713134765625 4791.5498046875 1252.4578857421875 4791.5498046875 ZM 1266.920166015625 4789.919921875 C 1267.493408203125 4789.919921875 1268.0068359375 4789.966796875 1268.4600830078125 4790.06005859375 L 1268.1900634765625 4791.8701171875 C 1267.65673828125 4791.75 1267.186767578125 4791.68994140625 1266.7801513671875 4791.68994140625 C 1265.7401123046875 4791.68994140625 1264.853515625 4792.11328125 1264.1201171875 4792.9599609375 C 1263.380126953125 4793.7998046875 1263.0101318359375 4794.85009765625 1263.0101318359375 4796.10986328125 L 1263.0101318359375 4803 L 1261.0601806640625 4803 L 1261.0601806640625 4790.16015625 L 1262.670166015625 4790.16015625 L 1262.89013671875 4792.5400390625 L 1262.9801025390625 4792.5400390625 C 1263.4600830078125 4791.7001953125 1264.0367431640625 4791.05322265625 1264.7100830078125 4790.60009765625 C 1265.3768310546875 4790.146484375 1266.1134033203125 4789.919921875 1266.920166015625 4789.919921875 ZM 1275.0096435546875 4790.16015625 L 1277.099609375 4790.16015625 L 1279.90966796875 4797.47998046875 C 1280.5296630859375 4799.1533203125 1280.9129638671875 4800.35986328125 1281.0595703125 4801.10009765625 L 1281.149658203125 4801.10009765625 C 1281.25634765625 4800.7001953125 1281.4696044921875 4800.02001953125 1281.7896728515625 4799.06005859375 C 1282.1163330078125 4798.09326171875 1283.17626953125 4795.12646484375 1284.9696044921875 4790.16015625 L 1287.0595703125 4790.16015625 L 1281.5396728515625 4804.77978515625 C 1280.992919921875 4806.2265625 1280.3529052734375 4807.25341796875 1279.61962890625 4807.85986328125 C 1278.8929443359375 4808.466796875 1277.9996337890625 4808.77001953125 1276.9395751953125 4808.77001953125 C 1276.339599609375 4808.77001953125 1275.7529296875 4808.703125 1275.1795654296875 4808.56982421875 L 1275.1795654296875 4807.009765625 C 1275.6063232421875 4807.103515625 1276.0863037109375 4807.14990234375 1276.61962890625 4807.14990234375 C 1277.9530029296875 4807.14990234375 1278.90625 4806.39990234375 1279.4796142578125 4804.89990234375 L 1280.1895751953125 4803.06982421875 L 1275.0096435546875 4790.16015625 ZM 1300.2205810546875 4796.56982421875 C 1300.2205810546875 4798.66357421875 1299.69384765625 4800.296875 1298.6405029296875 4801.47021484375 C 1297.58056640625 4802.6435546875 1296.1239013671875 4803.22998046875 1294.2705078125 4803.22998046875 C 1293.1171875 4803.22998046875 1292.09716796875 4802.96337890625 1291.2105712890625 4802.43017578125 C 1290.3172607421875 4801.89013671875 1289.627197265625 4801.11669921875 1289.1405029296875 4800.10986328125 C 1288.6605224609375 4799.0966796875 1288.4205322265625 4797.91650390625 1288.4205322265625 4796.56982421875 C 1288.4205322265625 4794.4765625 1288.94384765625 4792.84326171875 1289.9906005859375 4791.669921875 C 1291.0372314453125 4790.50341796875 1292.4906005859375 4789.919921875 1294.3505859375 4789.919921875 C 1296.1439208984375 4789.919921875 1297.570556640625 4790.5166015625 1298.630615234375 4791.7099609375 C 1299.6905517578125 4792.91015625 1300.2205810546875 4794.52978515625 1300.2205810546875 4796.56982421875 M 1290.4305419921875 4796.56982421875 C 1290.4305419921875 4798.2099609375 1290.760498046875 4799.4599609375 1291.4205322265625 4800.31982421875 C 1292.0738525390625 4801.18017578125 1293.0372314453125 4801.60986328125 1294.310546875 4801.60986328125 C 1295.5838623046875 4801.60986328125 1296.550537109375 4801.18017578125 1297.2105712890625 4800.31982421875 C 1297.87060546875 4799.466796875 1298.2005615234375 4798.216796875 1298.2005615234375 4796.56982421875 C 1298.2005615234375 4794.9365234375 1297.87060546875 4793.69677734375 1297.2105712890625 4792.85009765625 C 1296.550537109375 4791.99658203125 1295.5772705078125 4791.56982421875 1294.29052734375 4791.56982421875 C 1293.0172119140625 4791.56982421875 1292.0572509765625 4791.990234375 1291.4105224609375 4792.830078125 C 1290.7572021484375 4793.66357421875 1290.4305419921875 4794.91015625 1290.4305419921875 4796.56982421875 ZM 1305.5286865234375 4790.16015625 L 1305.5286865234375 4798.490234375 C 1305.5286865234375 4799.53662109375 1305.7686767578125 4800.31689453125 1306.2486572265625 4800.830078125 C 1306.7220458984375 4801.35009765625 1307.46533203125 4801.60986328125 1308.4786376953125 4801.60986328125 C 1309.8253173828125 4801.60986328125 1310.8087158203125 4801.240234375 1311.4287109375 4800.5 C 1312.0487060546875 4799.7666015625 1312.358642578125 4798.56982421875 1312.358642578125 4796.91015625 L 1312.358642578125 4790.16015625 L 1314.3087158203125 4790.16015625 L 1314.3087158203125 4803 L 1312.69873046875 4803 L 1312.418701171875 4801.27978515625 L 1312.3187255859375 4801.27978515625 C 1311.918701171875 4801.91357421875 1311.3653564453125 4802.396484375 1310.65869140625 4802.72998046875 C 1309.9520263671875 4803.0634765625 1309.1453857421875 4803.22998046875 1308.2386474609375 4803.22998046875 C 1306.6719970703125 4803.22998046875 1305.501953125 4802.85986328125 1304.7286376953125 4802.1201171875 C 1303.94873046875 4801.3798828125 1303.5587158203125 4800.193359375 1303.5587158203125 4798.56005859375 L 1303.5587158203125 4790.16015625 L 1305.5286865234375 4790.16015625 ZM 1324.3045654296875 4789.919921875 C 1324.8778076171875 4789.919921875 1325.3912353515625 4789.966796875 1325.844482421875 4790.06005859375 L 1325.574462890625 4791.8701171875 C 1325.0411376953125 4791.75 1324.5711669921875 4791.68994140625 1324.16455078125 4791.68994140625 C 1323.12451171875 4791.68994140625 1322.2379150390625 4792.11328125 1321.5045166015625 4792.9599609375 C 1320.7645263671875 4793.7998046875 1320.39453125 4794.85009765625 1320.39453125 4796.10986328125 L 1320.39453125 4803 L 1318.444580078125 4803 L 1318.444580078125 4790.16015625 L 1320.0545654296875 4790.16015625 L 1320.2745361328125 4792.5400390625 L 1320.364501953125 4792.5400390625 C 1320.844482421875 4791.7001953125 1321.421142578125 4791.05322265625 1322.094482421875 4790.60009765625 C 1322.76123046875 4790.146484375 1323.497802734375 4789.919921875 1324.3045654296875 4789.919921875 ZM 1338.583984375 4801.6298828125 C 1338.9306640625 4801.6298828125 1339.2640380859375 4801.603515625 1339.583984375 4801.5498046875 C 1339.904052734375 4801.50341796875 1340.1573486328125 4801.4501953125 1340.343994140625 4801.39013671875 L 1340.343994140625 4802.8798828125 C 1340.1307373046875 4802.98681640625 1339.8206787109375 4803.06982421875 1339.4140625 4803.1298828125 C 1339.000732421875 4803.19677734375 1338.6307373046875 4803.22998046875 1338.3040771484375 4803.22998046875 C 1335.8173828125 4803.22998046875 1334.573974609375 4801.92333984375 1334.573974609375 4799.31005859375 L 1334.573974609375 4791.669921875 L 1332.7340087890625 4791.669921875 L 1332.7340087890625 4790.72998046875 L 1334.573974609375 4789.919921875 L 1335.39404296875 4787.18017578125 L 1336.5240478515625 4787.18017578125 L 1336.5240478515625 4790.16015625 L 1340.2540283203125 4790.16015625 L 1340.2540283203125 4791.669921875 L 1336.5240478515625 4791.669921875 L 1336.5240478515625 4799.22998046875 C 1336.5240478515625 4800.00341796875 1336.7073974609375 4800.5966796875 1337.073974609375 4801.009765625 C 1337.440673828125 4801.42333984375 1337.9439697265625 4801.6298828125 1338.583984375 4801.6298828125 ZM 1348.214111328125 4803.22998046875 C 1346.3140869140625 4803.22998046875 1344.8140869140625 4802.6533203125 1343.714111328125 4801.5 C 1342.6207275390625 4800.3466796875 1342.0740966796875 4798.740234375 1342.0740966796875 4796.68017578125 C 1342.0740966796875 4794.61328125 1342.5841064453125 4792.97021484375 1343.6041259765625 4791.75 C 1344.6241455078125 4790.52978515625 1345.9908447265625 4789.919921875 1347.7041015625 4789.919921875 C 1349.3175048828125 4789.919921875 1350.5908203125 4790.4501953125 1351.524169921875 4791.509765625 C 1352.464111328125 4792.56982421875 1352.93408203125 4793.966796875 1352.93408203125 4795.7001953125 L 1352.93408203125 4796.93017578125 L 1344.0841064453125 4796.93017578125 C 1344.1241455078125 4798.4365234375 1344.5074462890625 4799.580078125 1345.234130859375 4800.35986328125 C 1345.9541015625 4801.146484375 1346.9708251953125 4801.5400390625 1348.2841796875 4801.5400390625 C 1349.6640625 4801.5400390625 1351.03076171875 4801.25 1352.3841552734375 4800.669921875 L 1352.3841552734375 4802.39990234375 C 1351.697509765625 4802.7001953125 1351.0474853515625 4802.91357421875 1350.43408203125 4803.0400390625 C 1349.82080078125 4803.16650390625 1349.080810546875 4803.22998046875 1348.214111328125 4803.22998046875 M 1347.68408203125 4791.5498046875 C 1346.6507568359375 4791.5498046875 1345.8275146484375 4791.88671875 1345.214111328125 4792.56005859375 C 1344.600830078125 4793.2333984375 1344.2408447265625 4794.16357421875 1344.1341552734375 4795.35009765625 L 1350.8541259765625 4795.35009765625 C 1350.8541259765625 4794.12353515625 1350.5775146484375 4793.18310546875 1350.024169921875 4792.52978515625 C 1349.4774169921875 4791.87646484375 1348.697509765625 4791.5498046875 1347.68408203125 4791.5498046875 ZM 1359.3863525390625 4796.43017578125 L 1354.916259765625 4790.16015625 L 1357.1363525390625 4790.16015625 L 1360.516357421875 4795.080078125 L 1363.8963623046875 4790.16015625 L 1366.0863037109375 4790.16015625 L 1361.6163330078125 4796.43017578125 L 1366.3162841796875 4803 L 1364.1163330078125 4803 L 1360.516357421875 4797.7998046875 L 1356.8863525390625 4803 L 1354.686279296875 4803 L 1359.3863525390625 4796.43017578125 ZM 1373.0501708984375 4801.6298828125 C 1373.3968505859375 4801.6298828125 1373.730224609375 4801.603515625 1374.0501708984375 4801.5498046875 C 1374.3702392578125 4801.50341796875 1374.62353515625 4801.4501953125 1374.8101806640625 4801.39013671875 L 1374.8101806640625 4802.8798828125 C 1374.596923828125 4802.98681640625 1374.286865234375 4803.06982421875 1373.8802490234375 4803.1298828125 C 1373.4669189453125 4803.19677734375 1373.096923828125 4803.22998046875 1372.770263671875 4803.22998046875 C 1370.2835693359375 4803.22998046875 1369.0401611328125 4801.92333984375 1369.0401611328125 4799.31005859375 L 1369.0401611328125 4791.669921875 L 1367.2001953125 4791.669921875 L 1367.2001953125 4790.72998046875 L 1369.0401611328125 4789.919921875 L 1369.8602294921875 4787.18017578125 L 1370.990234375 4787.18017578125 L 1370.990234375 4790.16015625 L 1374.72021484375 4790.16015625 L 1374.72021484375 4791.669921875 L 1370.990234375 4791.669921875 L 1370.990234375 4799.22998046875 C 1370.990234375 4800.00341796875 1371.173583984375 4800.5966796875 1371.5401611328125 4801.009765625 C 1371.9068603515625 4801.42333984375 1372.41015625 4801.6298828125 1373.0501708984375 4801.6298828125 ZM 1392.43603515625 4803 L 1392.43603515625 4794.68994140625 C 1392.43603515625 4793.6435546875 1392.1993408203125 4792.86328125 1391.72607421875 4792.35009765625 C 1391.24609375 4791.830078125 1390.4993896484375 4791.56982421875 1389.486083984375 4791.56982421875 C 1388.1326904296875 4791.56982421875 1387.1461181640625 4791.93994140625 1386.5260009765625 4792.68017578125 C 1385.906005859375 4793.41357421875 1385.5960693359375 4794.61669921875 1385.5960693359375 4796.2900390625 L 1385.5960693359375 4803 L 1383.6461181640625 4803 L 1383.6461181640625 4784.77001953125 L 1385.5960693359375 4784.77001953125 L 1385.5960693359375 4790.2900390625 C 1385.5960693359375 4790.9501953125 1385.562744140625 4791.5 1385.49609375 4791.93994140625 L 1385.6160888671875 4791.93994140625 C 1386.002685546875 4791.31982421875 1386.5494384765625 4790.83349609375 1387.256103515625 4790.47998046875 C 1387.9627685546875 4790.12646484375 1388.7694091796875 4789.9501953125 1389.676025390625 4789.9501953125 C 1391.24267578125 4789.9501953125 1392.41943359375 4790.31982421875 1393.2060546875 4791.06005859375 C 1393.99267578125 4791.806640625 1394.3861083984375 4792.9931640625 1394.3861083984375 4794.6201171875 L 1394.3861083984375 4803 L 1392.43603515625 4803 ZM 1403.8218994140625 4803.22998046875 C 1401.921875 4803.22998046875 1400.421875 4802.6533203125 1399.3218994140625 4801.5 C 1398.228515625 4800.3466796875 1397.681884765625 4798.740234375 1397.681884765625 4796.68017578125 C 1397.681884765625 4794.61328125 1398.19189453125 4792.97021484375 1399.2119140625 4791.75 C 1400.23193359375 4790.52978515625 1401.5986328125 4789.919921875 1403.3118896484375 4789.919921875 C 1404.92529296875 4789.919921875 1406.1986083984375 4790.4501953125 1407.1319580078125 4791.509765625 C 1408.0718994140625 4792.56982421875 1408.5418701171875 4793.966796875 1408.5418701171875 4795.7001953125 L 1408.5418701171875 4796.93017578125 L 1399.69189453125 4796.93017578125 C 1399.73193359375 4798.4365234375 1400.115234375 4799.580078125 1400.8419189453125 4800.35986328125 C 1401.5618896484375 4801.146484375 1402.57861328125 4801.5400390625 1403.8919677734375 4801.5400390625 C 1405.2718505859375 4801.5400390625 1406.6385498046875 4801.25 1407.991943359375 4800.669921875 L 1407.991943359375 4802.39990234375 C 1407.3052978515625 4802.7001953125 1406.6552734375 4802.91357421875 1406.0418701171875 4803.0400390625 C 1405.4285888671875 4803.16650390625 1404.6885986328125 4803.22998046875 1403.8218994140625 4803.22998046875 M 1403.2918701171875 4791.5498046875 C 1402.258544921875 4791.5498046875 1401.435302734375 4791.88671875 1400.8218994140625 4792.56005859375 C 1400.2086181640625 4793.2333984375 1399.8486328125 4794.16357421875 1399.741943359375 4795.35009765625 L 1406.4619140625 4795.35009765625 C 1406.4619140625 4794.12353515625 1406.185302734375 4793.18310546875 1405.6319580078125 4792.52978515625 C 1405.085205078125 4791.87646484375 1404.3052978515625 4791.5498046875 1403.2918701171875 4791.5498046875 ZM 1417.5765380859375 4789.919921875 C 1418.1497802734375 4789.919921875 1418.6632080078125 4789.966796875 1419.116455078125 4790.06005859375 L 1418.846435546875 4791.8701171875 C 1418.3131103515625 4791.75 1417.8431396484375 4791.68994140625 1417.4365234375 4791.68994140625 C 1416.396484375 4791.68994140625 1415.5098876953125 4792.11328125 1414.7764892578125 4792.9599609375 C 1414.0364990234375 4793.7998046875 1413.66650390625 4794.85009765625 1413.66650390625 4796.10986328125 L 1413.66650390625 4803 L 1411.716552734375 4803 L 1411.716552734375 4790.16015625 L 1413.3265380859375 4790.16015625 L 1413.5465087890625 4792.5400390625 L 1413.636474609375 4792.5400390625 C 1414.116455078125 4791.7001953125 1414.693115234375 4791.05322265625 1415.366455078125 4790.60009765625 C 1416.033203125 4790.146484375 1416.769775390625 4789.919921875 1417.5765380859375 4789.919921875 ZM 1427.095458984375 4803.22998046875 C 1425.1954345703125 4803.22998046875 1423.6954345703125 4802.6533203125 1422.595458984375 4801.5 C 1421.5020751953125 4800.3466796875 1420.9554443359375 4798.740234375 1420.9554443359375 4796.68017578125 C 1420.9554443359375 4794.61328125 1421.4654541015625 4792.97021484375 1422.4854736328125 4791.75 C 1423.5054931640625 4790.52978515625 1424.8721923828125 4789.919921875 1426.58544921875 4789.919921875 C 1428.1988525390625 4789.919921875 1429.47216796875 4790.4501953125 1430.405517578125 4791.509765625 C 1431.345458984375 4792.56982421875 1431.8154296875 4793.966796875 1431.8154296875 4795.7001953125 L 1431.8154296875 4796.93017578125 L 1422.9654541015625 4796.93017578125 C 1423.0054931640625 4798.4365234375 1423.3887939453125 4799.580078125 1424.115478515625 4800.35986328125 C 1424.83544921875 4801.146484375 1425.8521728515625 4801.5400390625 1427.16552734375 4801.5400390625 C 1428.54541015625 4801.5400390625 1429.912109375 4801.25 1431.2655029296875 4800.669921875 L 1431.2655029296875 4802.39990234375 C 1430.578857421875 4802.7001953125 1429.9288330078125 4802.91357421875 1429.3154296875 4803.0400390625 C 1428.7021484375 4803.16650390625 1427.962158203125 4803.22998046875 1427.095458984375 4803.22998046875 M 1426.5654296875 4791.5498046875 C 1425.5321044921875 4791.5498046875 1424.7088623046875 4791.88671875 1424.095458984375 4792.56005859375 C 1423.482177734375 4793.2333984375 1423.1221923828125 4794.16357421875 1423.0155029296875 4795.35009765625 L 1429.7354736328125 4795.35009765625 C 1429.7354736328125 4794.12353515625 1429.4588623046875 4793.18310546875 1428.905517578125 4792.52978515625 C 1428.3587646484375 4791.87646484375 1427.578857421875 4791.5498046875 1426.5654296875 4791.5498046875 Z" transform="matrix(1, 0, 0, 1, 0, 0)" style="fill: rgb(51, 51, 51); white-space: pre; color: rgb(51, 51, 51);"/><path d="M4370 3409 l0 -150 225 3 225 3 32 32 c29 29 33 40 36 100 2 55 -1&#10;74 -18 101 -35 56 -64 62 -295 62 l-205 0 0 -151z" style="fill: url('#gradient-7'); fill-opacity: 1; stroke: rgb(33, 255, 92); paint-order: stroke; stroke-opacity: 1;"/></g></g><path d="M 139.375 242.67359924316406 L 239.7222137451172 242.67359924316406 L 298.75 435.98956298828125 L 357.77777099609375 244.1492919921875 L 452.22222900390625 245.62498474121094 L 350.3992919921875 533.3853759765625 L 241.19790649414062 534.861083984375 L 139.375 242.67359924316406 Z" style="fill: rgb(255, 255, 255); fill-opacity: 1; stroke: rgb(255, 255, 255); stroke-opacity: 1; stroke-width: 10; paint-order: fill;"/><path d="M 492.06597900390625 242.67359924316406 L 592.4132080078125 242.67359924316406 L 592.4132080078125 533.3853759765625 L 496.4930419921875 531.9097290039062 L 492.06597900390625 242.67359924316406 Z" style="fill: rgb(255, 255, 255); fill-opacity: 1; stroke: rgb(255, 255, 255); stroke-opacity: 1; stroke-width: 10; paint-order: stroke;"/><path d="M 652.9166870117188 242.67359924316406 L 858.0382080078125 242.67359924316406 L 869.9696655273438 245.75877380371094 L 883.4630126953125 250.05210876464844 L 894.9119262695312 255.9810028076172 L 902.88525390625 262.11431884765625 L 911.471923828125 270.2921142578125 L 918.0140991210938 278.0610046386719 L 922.9207763671875 286.0343322753906 L 926.6007690429688 297.89208984375 L 928.1299438476562 308.5693054199219 L 928.3494873046875 317.789306640625 L 927.69091796875 328.32647705078125 L 925.276123046875 339.96124267578125 L 921.544189453125 349.6203308105469 L 916.275634765625 358.1817626953125 L 909.2508544921875 365.4260559082031 L 903.1041870117188 371.1336975097656 L 895.4208374023438 376.40228271484375 L 889.9327392578125 379.03656005859375 L 884.22509765625 381.01226806640625 L 882.0298461914062 382.1098937988281 L 885.32275390625 384.74420166015625 L 890.8108520507812 386.9394226074219 C 890.8108520507812 386.9394226074219 899.372314453125 390.4518127441406 899.1527709960938 390.4518127441406 C 898.9332275390625 390.4518127441406 908.3727416992188 396.1594543457031 908.3727416992188 396.1594543457031 L 916.7146606445312 403.1842346191406 L 922.4223022460938 409.3309020996094 L 927.69091796875 418.11187744140625 C 927.69091796875 418.11187744140625 931.6422729492188 427.77093505859375 931.4227905273438 427.77093505859375 C 931.2033081054688 427.77093505859375 933.6180419921875 437.2104797363281 933.6180419921875 437.2104797363281 L 934.7156982421875 446.43048095703125 L 935.374267578125 456.7481384277344 L 934.0570678710938 469.9195861816406 L 931.2033081054688 481.3348388671875 L 926.8128051757812 491.4329528808594 L 921.7637329101562 500.21392822265625 L 916.0560913085938 507.4582214355469 L 910.1289672851562 513.1658325195312 L 903.7627563476562 517.77587890625 L 895.2012939453125 522.6054077148438 L 887.2984619140625 526.7763671875 L 881.1517944335938 528.9716186523438 L 874.1270141601562 530.727783203125 L 866.8826904296875 531.3863525390625 L 852.3941040039062 532.4840087890625 L 684.9699096679688 533.6771850585938 L 655.6859130859375 534.0698852539062" style="fill: rgb(255, 255, 255); fill-opacity: 1; stroke: rgb(255, 255, 255); stroke-opacity: 1; stroke-width: 2; paint-order: stroke;" transform="matrix(1, 0, 0, 1, 0.7285251617431641, 0.12583117187023163)"/><path d="M 749.3717041015625 306.9946594238281 L 804.5906982421875 306.9946594238281 L 816.1947021484375 308.195068359375 L 822.3968505859375 309.7956237792969 L 826.5983276367188 311.59625244140625 L 829.7994384765625 314.79736328125 L 832.6004028320312 318.9988098144531 L 833.80078125 323.20025634765625 L 834.4010009765625 328.20196533203125 L 834.200927734375 334.80426025390625 L 833.6007080078125 339.60589599609375 L 833.00048828125 343.6072692871094 L 831.1998901367188 346.6083068847656 L 822.9970703125 355.2112731933594 L 749.57177734375 356.2116394042969 C 749.57177734375 356.2116394042969 749.171630859375 306.9946594238281 749.3717041015625 306.9946594238281 Z" style="fill: rgb(102, 44, 119); fill-opacity: 1; stroke: rgb(102, 44, 119); stroke-opacity: 1; stroke-width: 2; paint-order: fill;"/><path d="M 749.559814453125 416.3116760253906 L 811.6824951171875 416.64569091796875 L 820.1993408203125 416.81268310546875 L 826.0442504882812 417.8146667480469 L 829.7181396484375 419.150634765625 L 834.06005859375 421.82257080078125 L 837.0659790039062 424.8284912109375 C 837.0659790039062 424.8284912109375 839.4039306640625 429.50439453125 839.4039306640625 429.33740234375 C 839.4039306640625 429.17041015625 840.2389526367188 433.5123291015625 840.2389526367188 433.5123291015625 L 841.0739135742188 438.522216796875 L 841.0739135742188 442.6971435546875 L 840.7399291992188 446.5380554199219 L 840.4059448242188 449.71099853515625 L 839.4039306640625 452.8839111328125 L 838.2349853515625 455.5558776855469 L 836.7319946289062 458.0608215332031 L 834.56103515625 460.7327575683594 C 834.56103515625 460.7327575683594 833.72607421875 461.4007568359375 831.8890991210938 462.5697326660156 C 830.0521240234375 463.73870849609375 829.3841552734375 463.90570068359375 829.3841552734375 463.90570068359375 C 829.3841552734375 463.90570068359375 828.7162475585938 464.07269287109375 826.0442504882812 464.40667724609375 C 823.3722534179688 464.74066162109375 813.3524780273438 465.2416687011719 813.3524780273438 465.2416687011719 L 749.893798828125 465.4086608886719 L 749.559814453125 416.3116760253906 Z" style="fill: rgb(102, 44, 119); fill-opacity: 1; stroke: rgb(102, 44, 119); stroke-opacity: 1; stroke-width: 2; paint-order: stroke;"/><path d="M 972.758056640625 242.89511108398438 L 1241.4117431640625 243.47947692871094 L 1241.4117431640625 273.9552307128906 L 1107.4598388671875 462.9402770996094 L 1244.7606201171875 463.6602478027344 L 1244.5938720703125 533.9935913085938 L 963.1920776367188 534.3629150390625 L 963.5254516601562 502.52960205078125 L 1096.80078125 313.8931579589844 L 973.4146728515625 313.5124206542969 C 973.4146728515625 313.5124206542969 973.0813598632812 242.51242065429688 972.758056640625 242.89511108398438 Z" style="fill: rgb(255, 255, 255); fill-opacity: 1; stroke: rgb(255, 255, 255); stroke-opacity: 1; stroke-width: 1; paint-order: fill;"/><path d="M 832.14453125 264.5780029296875" style="fill: rgb(255, 255, 255); fill-opacity: 1; stroke: rgb(255, 255, 255); stroke-opacity: 1; stroke-width: 1; paint-order: stroke;"/></svg>