<?xml version="1.0" encoding="utf-8"?>
<svg id="master-artboard" viewBox="0 0 1400 980" version="1.1" xmlns="http://www.w3.org/2000/svg" x="0px" y="0px" style="enable-background:new 0 0 336 235.2;" width="1400px" height="980px"><defs><linearGradient id="gradient-0" gradientUnits="userSpaceOnUse" x1="4002.174072265625" y1="1040" x2="4002.174072265625" y2="5176.19384765625">
                <stop offset="0" style="stop-color: #000000"/>
                <stop offset="1" style="stop-color: #000000"/>
              </linearGradient><linearGradient id="gradient-1" gradientUnits="userSpaceOnUse" x1="4629.271240234375" y1="3259" x2="4629.271240234375" y2="3560">
                <stop offset="0" style="stop-color: #000000"/>
                <stop offset="1" style="stop-color: #000000"/>
              </linearGradient><linearGradient id="gradient-2" gradientUnits="userSpaceOnUse" x1="4650" y1="2590" x2="4650" y2="2890">
                <stop offset="0" style="stop-color: #000000"/>
                <stop offset="1" style="stop-color: #000000"/>
              </linearGradient><radialGradient id="gradient-3" gradientUnits="objectBoundingBox" cx="0.5" cy="0.5" r="0.5">
                <stop offset="0" style="stop-color: #a44bbd"/>
                <stop offset="1" style="stop-color: #662c77"/>
              </radialGradient><radialGradient id="gradient-4" gradientUnits="objectBoundingBox" cx="0.5" cy="0.5" r="0.5">
                <stop offset="0" style="stop-color: #a44bbd"/>
                <stop offset="1" style="stop-color: #662c77"/>
              </radialGradient><radialGradient id="gradient-5" gradientUnits="objectBoundingBox" cx="0.5" cy="0.5" r="0.5">
                <stop offset="0" style="stop-color: #a44bbd"/>
                <stop offset="1" style="stop-color: #662c77"/>
              </radialGradient><linearGradient id="gradient-6" gradientUnits="userSpaceOnUse" x1="1336.8890380859375" y1="1040.0001220703125" x2="1336.8890380859375" y2="5176.19384765625" gradientTransform="matrix(0.007423891627298007, -0.9999722604570084, 1.4132696717377953, 0.010492826275426803, -1389.6478864260193, 4425.888587414131)">
                <stop offset="0" style="stop-color: #a44bbd"/>
                <stop offset="1" style="stop-color: #662c77"/>
              </linearGradient><linearGradient id="gradient-7" gradientUnits="userSpaceOnUse" x1="4629.271240234375" y1="3259" x2="4629.271240234375" y2="3560" gradientTransform="matrix(-0.17616841879508954, -0.9843601775408386, 0.45024165745007544, -0.08057895374400895, 3570.896559913537, 8232.070116512228)">
                <stop offset="0" style="stop-color: #a44bbd"/>
                <stop offset="1" style="stop-color: #662c77"/>
              </linearGradient><linearGradient id="gradient-8" gradientUnits="userSpaceOnUse" x1="4650" y1="2590" x2="4650" y2="2890" gradientTransform="matrix(-0.06105996477503746, -0.9981368418522653, 0.3915141562908442, -0.023951573524136616, 3549.4778948697626, 7446.962683562786)">
                <stop offset="0" style="stop-color: #a44bbd"/>
                <stop offset="1" style="stop-color: #662c77"/>
              </linearGradient><linearGradient id="gradient-9" gradientUnits="userSpaceOnUse" x1="4002.174072265625" y1="1040" x2="4002.174072265625" y2="5176.19384765625" gradientTransform="matrix(0.014412821323920024, -0.9998961696856205, 1.031009911822822, 0.014861548099057615, -1139.2386303586095, 7077.2168400032915)">
                <stop offset="0" style="stop-color: #a44bbd"/>
                <stop offset="1" style="stop-color: #662c77"/>
              </linearGradient></defs><rect id="ee-background" x="0" y="0" width="1400" height="980" style="fill: white; fill-opacity: 0; pointer-events: none;"/>














<g transform="matrix(1.6333332061767578, 0, 0, 1.6333332061767578, 30.43402863157425, -51.64930506314673)"><g transform="translate(0.000000,600.000000) scale(0.100000,-0.100000)" fill="#000000" stroke="none">



<path d="M229 5170 c-88 -15 -164 -74 -203 -159 l-21 -46 0 -1855 0 -1855 28&#10;-57 c30 -61 64 -95 131 -131 l41 -22 3784 -3 3784 -2 56 26 c69 31 105 64 139&#10;129 l27 50 3 1839 c3 2033 7 1899 -61 1988 -20 27 -55 54 -92 73 l-59 30&#10;-3755 1 c-2066 1 -3777 -2 -3802 -6z m1195 -1788 c93 -312 174 -580 181 -596&#10;11 -30 16 -17 333 1041 l37 123 293 0 c160 0 292 -2 292 -4 0 -7 -619 -1757&#10;-625 -1766 -6 -10 -665 -15 -665 -6 0 2 -120 341 -266 753 -146 411 -288 810&#10;-315 886 l-48 137 307 0 307 0 169 -568z m1970 -322 l-1 -885 -286 -3 -287 -2&#10;0 890 0 890 288 -2 287 -3 -1 -885z m1714 875 c144 -34 270 -131 327 -250 52&#10;-109 46 -288 -13 -398 -34 -63 -119 -141 -179 -163 -27 -9 -52 -20 -56 -24 -4&#10;-4 19 -17 52 -29 165 -60 254 -176 270 -354 19 -215 -64 -383 -235 -474 -128&#10;-68 -110 -67 -826 -71 l-648 -3 0 890 0 891 623 0 c516 0 633 -3 685 -15z&#10;m2272 -78 l0 -93 -410 -579 -410 -580 420 -3 420 -2 0 -215 0 -215 -860 0&#10;-860 0 0 98 1 97 407 575 407 575 -377 3 -378 2 0 215 0 215 820 0 820 0 0&#10;-93z" style="fill: url('#gradient-9'); fill-opacity: 1; stroke: rgb(33, 255, 92); paint-order: stroke; stroke-opacity: 1;"/><path d="M4370 2740 l0 -150 238 0 c173 1 243 4 260 14 42 23 62 66 62 131 0&#10;71 -14 102 -59 132 -33 22 -41 23 -267 23 l-234 0 0 -150z" style="fill: url('#gradient-8'); fill-opacity: 1; stroke: rgb(33, 255, 92); paint-order: stroke; stroke-opacity: 1;"/><path d="M 1220.9874267578125 4803.00048828125 L 1211.4373779296875 4803.00048828125 L 1211.4373779296875 4785.87060546875 L 1220.9874267578125 4785.87060546875 L 1220.9874267578125 4787.640625 L 1213.4273681640625 4787.640625 L 1213.4273681640625 4793.16064453125 L 1220.52734375 4793.16064453125 L 1220.52734375 4794.91064453125 L 1213.4273681640625 4794.91064453125 L 1213.4273681640625 4801.220703125 L 1220.9874267578125 4801.220703125 L 1220.9874267578125 4803.00048828125 ZM 1233.25390625 4803.00048828125 L 1233.25390625 4794.6904296875 C 1233.25390625 4793.64404296875 1233.0172119140625 4792.86376953125 1232.5439453125 4792.3505859375 C 1232.06396484375 4791.83056640625 1231.3172607421875 4791.5703125 1230.303955078125 4791.5703125 C 1228.957275390625 4791.5703125 1227.973876953125 4791.93359375 1227.3538818359375 4792.66064453125 C 1226.727294921875 4793.38720703125 1226.4139404296875 4794.5869140625 1226.4139404296875 4796.26025390625 L 1226.4139404296875 4803.00048828125 L 1224.4639892578125 4803.00048828125 L 1224.4639892578125 4790.16064453125 L 1226.0439453125 4790.16064453125 L 1226.3638916015625 4791.91064453125 L 1226.4539794921875 4791.91064453125 C 1226.8538818359375 4791.27734375 1227.4139404296875 4790.787109375 1228.1339111328125 4790.4404296875 C 1228.8538818359375 4790.09375 1229.6539306640625 4789.92041015625 1230.533935546875 4789.92041015625 C 1232.08056640625 4789.92041015625 1233.247314453125 4790.2939453125 1234.033935546875 4791.04052734375 C 1234.81396484375 4791.787109375 1235.2039794921875 4792.98046875 1235.2039794921875 4794.62060546875 L 1235.2039794921875 4803.00048828125 L 1233.25390625 4803.00048828125 ZM 1243.2955322265625 4801.63037109375 C 1243.6422119140625 4801.63037109375 1243.9755859375 4801.60400390625 1244.2955322265625 4801.55029296875 C 1244.6156005859375 4801.50390625 1244.868896484375 4801.45068359375 1245.0555419921875 4801.390625 L 1245.0555419921875 4802.88037109375 C 1244.84228515625 4802.9873046875 1244.5322265625 4803.0703125 1244.1256103515625 4803.13037109375 C 1243.7122802734375 4803.197265625 1243.34228515625 4803.23046875 1243.015625 4803.23046875 C 1240.5289306640625 4803.23046875 1239.2855224609375 4801.923828125 1239.2855224609375 4799.310546875 L 1239.2855224609375 4791.67041015625 L 1237.445556640625 4791.67041015625 L 1237.445556640625 4790.73046875 L 1239.2855224609375 4789.92041015625 L 1240.1055908203125 4787.1806640625 L 1241.235595703125 4787.1806640625 L 1241.235595703125 4790.16064453125 L 1244.965576171875 4790.16064453125 L 1244.965576171875 4791.67041015625 L 1241.235595703125 4791.67041015625 L 1241.235595703125 4799.23046875 C 1241.235595703125 4800.00390625 1241.4189453125 4800.59716796875 1241.7855224609375 4801.01025390625 C 1242.1522216796875 4801.423828125 1242.655517578125 4801.63037109375 1243.2955322265625 4801.63037109375 ZM 1253.045654296875 4803.23046875 C 1251.1456298828125 4803.23046875 1249.6456298828125 4802.65380859375 1248.545654296875 4801.50048828125 C 1247.4522705078125 4800.34716796875 1246.9056396484375 4798.74072265625 1246.9056396484375 4796.6806640625 C 1246.9056396484375 4794.61376953125 1247.4156494140625 4792.970703125 1248.4356689453125 4791.75048828125 C 1249.4556884765625 4790.5302734375 1250.8223876953125 4789.92041015625 1252.53564453125 4789.92041015625 C 1254.1490478515625 4789.92041015625 1255.42236328125 4790.45068359375 1256.355712890625 4791.51025390625 C 1257.295654296875 4792.5703125 1257.765625 4793.96728515625 1257.765625 4795.70068359375 L 1257.765625 4796.9306640625 L 1248.9156494140625 4796.9306640625 C 1248.9556884765625 4798.43701171875 1249.3389892578125 4799.58056640625 1250.065673828125 4800.3603515625 C 1250.78564453125 4801.14697265625 1251.8023681640625 4801.54052734375 1253.11572265625 4801.54052734375 C 1254.49560546875 4801.54052734375 1255.8623046875 4801.25048828125 1257.2156982421875 4800.67041015625 L 1257.2156982421875 4802.400390625 C 1256.529052734375 4802.70068359375 1255.8790283203125 4802.9140625 1255.265625 4803.04052734375 C 1254.65234375 4803.1669921875 1253.912353515625 4803.23046875 1253.045654296875 4803.23046875 M 1252.515625 4791.55029296875 C 1251.4822998046875 4791.55029296875 1250.6590576171875 4791.88720703125 1250.045654296875 4792.560546875 C 1249.432373046875 4793.23388671875 1249.0723876953125 4794.1640625 1248.9656982421875 4795.3505859375 L 1255.6856689453125 4795.3505859375 C 1255.6856689453125 4794.1240234375 1255.4090576171875 4793.18359375 1254.855712890625 4792.5302734375 C 1254.3089599609375 4791.876953125 1253.529052734375 4791.55029296875 1252.515625 4791.55029296875 ZM 1266.9151611328125 4789.92041015625 C 1267.4884033203125 4789.92041015625 1268.0018310546875 4789.96728515625 1268.455078125 4790.060546875 L 1268.18505859375 4791.87060546875 C 1267.6517333984375 4791.75048828125 1267.1817626953125 4791.6904296875 1266.775146484375 4791.6904296875 C 1265.735107421875 4791.6904296875 1264.8485107421875 4792.11376953125 1264.1151123046875 4792.96044921875 C 1263.3751220703125 4793.80029296875 1263.005126953125 4794.8505859375 1263.005126953125 4796.1103515625 L 1263.005126953125 4803.00048828125 L 1261.05517578125 4803.00048828125 L 1261.05517578125 4790.16064453125 L 1262.6651611328125 4790.16064453125 L 1262.8851318359375 4792.54052734375 L 1262.97509765625 4792.54052734375 C 1263.455078125 4791.70068359375 1264.03173828125 4791.0537109375 1264.705078125 4790.6005859375 C 1265.371826171875 4790.14697265625 1266.1083984375 4789.92041015625 1266.9151611328125 4789.92041015625 ZM 1275.052001953125 4790.16064453125 L 1277.1419677734375 4790.16064453125 L 1279.9520263671875 4797.48046875 C 1280.572021484375 4799.15380859375 1280.955322265625 4800.3603515625 1281.1019287109375 4801.1005859375 L 1281.1920166015625 4801.1005859375 C 1281.2987060546875 4800.70068359375 1281.511962890625 4800.0205078125 1281.83203125 4799.060546875 C 1282.15869140625 4798.09375 1283.2186279296875 4795.126953125 1285.011962890625 4790.16064453125 L 1287.1019287109375 4790.16064453125 L 1281.58203125 4804.7802734375 C 1281.0352783203125 4806.22705078125 1280.395263671875 4807.25390625 1279.6619873046875 4807.8603515625 C 1278.935302734375 4808.46728515625 1278.0419921875 4808.7705078125 1276.98193359375 4808.7705078125 C 1276.3819580078125 4808.7705078125 1275.7952880859375 4808.70361328125 1275.221923828125 4808.5703125 L 1275.221923828125 4807.01025390625 C 1275.648681640625 4807.10400390625 1276.128662109375 4807.150390625 1276.6619873046875 4807.150390625 C 1277.995361328125 4807.150390625 1278.9486083984375 4806.400390625 1279.52197265625 4804.900390625 L 1280.23193359375 4803.0703125 L 1275.052001953125 4790.16064453125 ZM 1300.26611328125 4796.5703125 C 1300.26611328125 4798.6640625 1299.7393798828125 4800.29736328125 1298.68603515625 4801.470703125 C 1297.6260986328125 4802.64404296875 1296.16943359375 4803.23046875 1294.3160400390625 4803.23046875 C 1293.1627197265625 4803.23046875 1292.1427001953125 4802.9638671875 1291.256103515625 4802.4306640625 C 1290.36279296875 4801.890625 1289.6727294921875 4801.1171875 1289.18603515625 4800.1103515625 C 1288.7060546875 4799.09716796875 1288.466064453125 4797.9169921875 1288.466064453125 4796.5703125 C 1288.466064453125 4794.47705078125 1288.9893798828125 4792.84375 1290.0361328125 4791.67041015625 C 1291.082763671875 4790.50390625 1292.5361328125 4789.92041015625 1294.3961181640625 4789.92041015625 C 1296.189453125 4789.92041015625 1297.6160888671875 4790.51708984375 1298.6761474609375 4791.71044921875 C 1299.736083984375 4792.91064453125 1300.26611328125 4794.5302734375 1300.26611328125 4796.5703125 M 1290.47607421875 4796.5703125 C 1290.47607421875 4798.21044921875 1290.8060302734375 4799.46044921875 1291.466064453125 4800.3203125 C 1292.119384765625 4801.1806640625 1293.082763671875 4801.6103515625 1294.3560791015625 4801.6103515625 C 1295.62939453125 4801.6103515625 1296.5960693359375 4801.1806640625 1297.256103515625 4800.3203125 C 1297.9161376953125 4799.46728515625 1298.24609375 4798.21728515625 1298.24609375 4796.5703125 C 1298.24609375 4794.93701171875 1297.9161376953125 4793.697265625 1297.256103515625 4792.8505859375 C 1296.5960693359375 4791.9970703125 1295.622802734375 4791.5703125 1294.3360595703125 4791.5703125 C 1293.062744140625 4791.5703125 1292.102783203125 4791.99072265625 1291.4560546875 4792.83056640625 C 1290.802734375 4793.6640625 1290.47607421875 4794.91064453125 1290.47607421875 4796.5703125 ZM 1305.5748291015625 4790.16064453125 L 1305.5748291015625 4798.49072265625 C 1305.5748291015625 4799.537109375 1305.8148193359375 4800.3173828125 1306.2947998046875 4800.83056640625 C 1306.7681884765625 4801.3505859375 1307.511474609375 4801.6103515625 1308.5247802734375 4801.6103515625 C 1309.8714599609375 4801.6103515625 1310.8548583984375 4801.24072265625 1311.474853515625 4800.50048828125 C 1312.0948486328125 4799.76708984375 1312.40478515625 4798.5703125 1312.40478515625 4796.91064453125 L 1312.40478515625 4790.16064453125 L 1314.3548583984375 4790.16064453125 L 1314.3548583984375 4803.00048828125 L 1312.744873046875 4803.00048828125 L 1312.46484375 4801.2802734375 L 1312.3648681640625 4801.2802734375 C 1311.96484375 4801.9140625 1311.4114990234375 4802.39697265625 1310.704833984375 4802.73046875 C 1309.9981689453125 4803.06396484375 1309.1915283203125 4803.23046875 1308.2847900390625 4803.23046875 C 1306.7181396484375 4803.23046875 1305.548095703125 4802.8603515625 1304.7747802734375 4802.12060546875 C 1303.994873046875 4801.38037109375 1303.6048583984375 4800.19384765625 1303.6048583984375 4798.560546875 L 1303.6048583984375 4790.16064453125 L 1305.5748291015625 4790.16064453125 ZM 1324.2864990234375 4789.92041015625 C 1324.8597412109375 4789.92041015625 1325.3731689453125 4789.96728515625 1325.826416015625 4790.060546875 L 1325.556396484375 4791.87060546875 C 1325.0230712890625 4791.75048828125 1324.5531005859375 4791.6904296875 1324.146484375 4791.6904296875 C 1323.1064453125 4791.6904296875 1322.2198486328125 4792.11376953125 1321.4864501953125 4792.96044921875 C 1320.7464599609375 4793.80029296875 1320.37646484375 4794.8505859375 1320.37646484375 4796.1103515625 L 1320.37646484375 4803.00048828125 L 1318.426513671875 4803.00048828125 L 1318.426513671875 4790.16064453125 L 1320.0364990234375 4790.16064453125 L 1320.2564697265625 4792.54052734375 L 1320.346435546875 4792.54052734375 C 1320.826416015625 4791.70068359375 1321.403076171875 4791.0537109375 1322.076416015625 4790.6005859375 C 1322.7431640625 4790.14697265625 1323.479736328125 4789.92041015625 1324.2864990234375 4789.92041015625 ZM 1338.61328125 4801.63037109375 C 1338.9599609375 4801.63037109375 1339.2933349609375 4801.60400390625 1339.61328125 4801.55029296875 C 1339.933349609375 4801.50390625 1340.1866455078125 4801.45068359375 1340.373291015625 4801.390625 L 1340.373291015625 4802.88037109375 C 1340.1600341796875 4802.9873046875 1339.8499755859375 4803.0703125 1339.443359375 4803.13037109375 C 1339.030029296875 4803.197265625 1338.6600341796875 4803.23046875 1338.3333740234375 4803.23046875 C 1335.8466796875 4803.23046875 1334.603271484375 4801.923828125 1334.603271484375 4799.310546875 L 1334.603271484375 4791.67041015625 L 1332.7633056640625 4791.67041015625 L 1332.7633056640625 4790.73046875 L 1334.603271484375 4789.92041015625 L 1335.42333984375 4787.1806640625 L 1336.5533447265625 4787.1806640625 L 1336.5533447265625 4790.16064453125 L 1340.2833251953125 4790.16064453125 L 1340.2833251953125 4791.67041015625 L 1336.5533447265625 4791.67041015625 L 1336.5533447265625 4799.23046875 C 1336.5533447265625 4800.00390625 1336.7366943359375 4800.59716796875 1337.103271484375 4801.01025390625 C 1337.469970703125 4801.423828125 1337.9732666015625 4801.63037109375 1338.61328125 4801.63037109375 ZM 1348.363525390625 4803.23046875 C 1346.4635009765625 4803.23046875 1344.9635009765625 4802.65380859375 1343.863525390625 4801.50048828125 C 1342.7701416015625 4800.34716796875 1342.2235107421875 4798.74072265625 1342.2235107421875 4796.6806640625 C 1342.2235107421875 4794.61376953125 1342.7335205078125 4792.970703125 1343.7535400390625 4791.75048828125 C 1344.7735595703125 4790.5302734375 1346.1402587890625 4789.92041015625 1347.853515625 4789.92041015625 C 1349.4669189453125 4789.92041015625 1350.740234375 4790.45068359375 1351.673583984375 4791.51025390625 C 1352.613525390625 4792.5703125 1353.08349609375 4793.96728515625 1353.08349609375 4795.70068359375 L 1353.08349609375 4796.9306640625 L 1344.2335205078125 4796.9306640625 C 1344.2735595703125 4798.43701171875 1344.6568603515625 4799.58056640625 1345.383544921875 4800.3603515625 C 1346.103515625 4801.14697265625 1347.1202392578125 4801.54052734375 1348.43359375 4801.54052734375 C 1349.8134765625 4801.54052734375 1351.18017578125 4801.25048828125 1352.5335693359375 4800.67041015625 L 1352.5335693359375 4802.400390625 C 1351.846923828125 4802.70068359375 1351.1968994140625 4802.9140625 1350.58349609375 4803.04052734375 C 1349.97021484375 4803.1669921875 1349.230224609375 4803.23046875 1348.363525390625 4803.23046875 M 1347.83349609375 4791.55029296875 C 1346.8001708984375 4791.55029296875 1345.9769287109375 4791.88720703125 1345.363525390625 4792.560546875 C 1344.750244140625 4793.23388671875 1344.3902587890625 4794.1640625 1344.2835693359375 4795.3505859375 L 1351.0035400390625 4795.3505859375 C 1351.0035400390625 4794.1240234375 1350.7269287109375 4793.18359375 1350.173583984375 4792.5302734375 C 1349.6268310546875 4791.876953125 1348.846923828125 4791.55029296875 1347.83349609375 4791.55029296875 ZM 1359.472900390625 4796.4306640625 L 1355.0028076171875 4790.16064453125 L 1357.222900390625 4790.16064453125 L 1360.6029052734375 4795.08056640625 L 1363.98291015625 4790.16064453125 L 1366.1728515625 4790.16064453125 L 1361.702880859375 4796.4306640625 L 1366.40283203125 4803.00048828125 L 1364.202880859375 4803.00048828125 L 1360.6029052734375 4797.80029296875 L 1356.972900390625 4803.00048828125 L 1354.7728271484375 4803.00048828125 L 1359.472900390625 4796.4306640625 ZM 1373.171630859375 4801.63037109375 C 1373.518310546875 4801.63037109375 1373.8516845703125 4801.60400390625 1374.171630859375 4801.55029296875 C 1374.49169921875 4801.50390625 1374.7449951171875 4801.45068359375 1374.931640625 4801.390625 L 1374.931640625 4802.88037109375 C 1374.7183837890625 4802.9873046875 1374.4083251953125 4803.0703125 1374.001708984375 4803.13037109375 C 1373.58837890625 4803.197265625 1373.2183837890625 4803.23046875 1372.8917236328125 4803.23046875 C 1370.405029296875 4803.23046875 1369.16162109375 4801.923828125 1369.16162109375 4799.310546875 L 1369.16162109375 4791.67041015625 L 1367.3216552734375 4791.67041015625 L 1367.3216552734375 4790.73046875 L 1369.16162109375 4789.92041015625 L 1369.981689453125 4787.1806640625 L 1371.1116943359375 4787.1806640625 L 1371.1116943359375 4790.16064453125 L 1374.8416748046875 4790.16064453125 L 1374.8416748046875 4791.67041015625 L 1371.1116943359375 4791.67041015625 L 1371.1116943359375 4799.23046875 C 1371.1116943359375 4800.00390625 1371.2950439453125 4800.59716796875 1371.66162109375 4801.01025390625 C 1372.0283203125 4801.423828125 1372.5316162109375 4801.63037109375 1373.171630859375 4801.63037109375 ZM 1392.4932861328125 4803.00048828125 L 1392.4932861328125 4794.6904296875 C 1392.4932861328125 4793.64404296875 1392.256591796875 4792.86376953125 1391.7833251953125 4792.3505859375 C 1391.3033447265625 4791.83056640625 1390.556640625 4791.5703125 1389.5433349609375 4791.5703125 C 1388.18994140625 4791.5703125 1387.203369140625 4791.9404296875 1386.583251953125 4792.6806640625 C 1385.9632568359375 4793.4140625 1385.6533203125 4794.6171875 1385.6533203125 4796.29052734375 L 1385.6533203125 4803.00048828125 L 1383.703369140625 4803.00048828125 L 1383.703369140625 4784.7705078125 L 1385.6533203125 4784.7705078125 L 1385.6533203125 4790.29052734375 C 1385.6533203125 4790.95068359375 1385.6199951171875 4791.50048828125 1385.5533447265625 4791.9404296875 L 1385.67333984375 4791.9404296875 C 1386.0599365234375 4791.3203125 1386.606689453125 4790.833984375 1387.3133544921875 4790.48046875 C 1388.02001953125 4790.126953125 1388.82666015625 4789.95068359375 1389.7332763671875 4789.95068359375 C 1391.2999267578125 4789.95068359375 1392.4766845703125 4790.3203125 1393.2633056640625 4791.060546875 C 1394.0499267578125 4791.80712890625 1394.443359375 4792.99365234375 1394.443359375 4794.62060546875 L 1394.443359375 4803.00048828125 L 1392.4932861328125 4803.00048828125 ZM 1403.8150634765625 4803.23046875 C 1401.9150390625 4803.23046875 1400.4150390625 4802.65380859375 1399.3150634765625 4801.50048828125 C 1398.2216796875 4800.34716796875 1397.675048828125 4798.74072265625 1397.675048828125 4796.6806640625 C 1397.675048828125 4794.61376953125 1398.18505859375 4792.970703125 1399.205078125 4791.75048828125 C 1400.22509765625 4790.5302734375 1401.591796875 4789.92041015625 1403.3050537109375 4789.92041015625 C 1404.91845703125 4789.92041015625 1406.1917724609375 4790.45068359375 1407.1251220703125 4791.51025390625 C 1408.0650634765625 4792.5703125 1408.5350341796875 4793.96728515625 1408.5350341796875 4795.70068359375 L 1408.5350341796875 4796.9306640625 L 1399.68505859375 4796.9306640625 C 1399.72509765625 4798.43701171875 1400.1083984375 4799.58056640625 1400.8350830078125 4800.3603515625 C 1401.5550537109375 4801.14697265625 1402.57177734375 4801.54052734375 1403.8851318359375 4801.54052734375 C 1405.2650146484375 4801.54052734375 1406.6317138671875 4801.25048828125 1407.985107421875 4800.67041015625 L 1407.985107421875 4802.400390625 C 1407.2984619140625 4802.70068359375 1406.6484375 4802.9140625 1406.0350341796875 4803.04052734375 C 1405.4217529296875 4803.1669921875 1404.6817626953125 4803.23046875 1403.8150634765625 4803.23046875 M 1403.2850341796875 4791.55029296875 C 1402.251708984375 4791.55029296875 1401.428466796875 4791.88720703125 1400.8150634765625 4792.560546875 C 1400.2017822265625 4793.23388671875 1399.841796875 4794.1640625 1399.735107421875 4795.3505859375 L 1406.455078125 4795.3505859375 C 1406.455078125 4794.1240234375 1406.178466796875 4793.18359375 1405.6251220703125 4792.5302734375 C 1405.078369140625 4791.876953125 1404.2984619140625 4791.55029296875 1403.2850341796875 4791.55029296875 ZM 1417.6844482421875 4789.92041015625 C 1418.2576904296875 4789.92041015625 1418.7711181640625 4789.96728515625 1419.224365234375 4790.060546875 L 1418.954345703125 4791.87060546875 C 1418.4210205078125 4791.75048828125 1417.9510498046875 4791.6904296875 1417.54443359375 4791.6904296875 C 1416.50439453125 4791.6904296875 1415.6177978515625 4792.11376953125 1414.8843994140625 4792.96044921875 C 1414.1444091796875 4793.80029296875 1413.7744140625 4794.8505859375 1413.7744140625 4796.1103515625 L 1413.7744140625 4803.00048828125 L 1411.824462890625 4803.00048828125 L 1411.824462890625 4790.16064453125 L 1413.4344482421875 4790.16064453125 L 1413.6544189453125 4792.54052734375 L 1413.744384765625 4792.54052734375 C 1414.224365234375 4791.70068359375 1414.801025390625 4791.0537109375 1415.474365234375 4790.6005859375 C 1416.14111328125 4790.14697265625 1416.877685546875 4789.92041015625 1417.6844482421875 4789.92041015625 ZM 1427.079833984375 4803.23046875 C 1425.1798095703125 4803.23046875 1423.6798095703125 4802.65380859375 1422.579833984375 4801.50048828125 C 1421.4864501953125 4800.34716796875 1420.9398193359375 4798.74072265625 1420.9398193359375 4796.6806640625 C 1420.9398193359375 4794.61376953125 1421.4498291015625 4792.970703125 1422.4698486328125 4791.75048828125 C 1423.4898681640625 4790.5302734375 1424.8565673828125 4789.92041015625 1426.56982421875 4789.92041015625 C 1428.1832275390625 4789.92041015625 1429.45654296875 4790.45068359375 1430.389892578125 4791.51025390625 C 1431.329833984375 4792.5703125 1431.7998046875 4793.96728515625 1431.7998046875 4795.70068359375 L 1431.7998046875 4796.9306640625 L 1422.9498291015625 4796.9306640625 C 1422.9898681640625 4798.43701171875 1423.3731689453125 4799.58056640625 1424.099853515625 4800.3603515625 C 1424.81982421875 4801.14697265625 1425.8365478515625 4801.54052734375 1427.14990234375 4801.54052734375 C 1428.52978515625 4801.54052734375 1429.896484375 4801.25048828125 1431.2498779296875 4800.67041015625 L 1431.2498779296875 4802.400390625 C 1430.563232421875 4802.70068359375 1429.9132080078125 4802.9140625 1429.2998046875 4803.04052734375 C 1428.6865234375 4803.1669921875 1427.946533203125 4803.23046875 1427.079833984375 4803.23046875 M 1426.5498046875 4791.55029296875 C 1425.5164794921875 4791.55029296875 1424.6932373046875 4791.88720703125 1424.079833984375 4792.560546875 C 1423.466552734375 4793.23388671875 1423.1065673828125 4794.1640625 1422.9998779296875 4795.3505859375 L 1429.7198486328125 4795.3505859375 C 1429.7198486328125 4794.1240234375 1429.4432373046875 4793.18359375 1428.889892578125 4792.5302734375 C 1428.3431396484375 4791.876953125 1427.563232421875 4791.55029296875 1426.5498046875 4791.55029296875 Z" transform="matrix(1, 0, 0, 1, 0, 0)" style="fill: rgb(51, 51, 51); white-space: pre; color: rgb(51, 51, 51);"/><path d="M4370 3409 l0 -150 225 3 225 3 32 32 c29 29 33 40 36 100 2 55 -1&#10;74 -18 101 -35 56 -64 62 -295 62 l-205 0 0 -151z" style="fill: url('#gradient-7'); fill-opacity: 1; stroke: rgb(33, 255, 92); paint-order: stroke; stroke-opacity: 1;"/></g></g></svg>